#!OML:ASF G:\JayActor3\Patient Classification 1\Patient 1\Session 5\male.ASF
:FULLY-SPECIFIED
:DEGREES
546
root -3.17636 16.665 -6.40012 705.881 -85.3213 -686.142
lowerback 27.2576 -1.34069 1.261
upperback 5.23812 -1.8242 -0.532605
thorax -9.29862 -1.05817 -0.669089
lowerneck 0.592004 -0.720773 1.54514
upperneck -6.10928 -0.899092 1.48689
head -2.00375 -0.54234 0.223161
rclavicle 2.72335e-014 3.46382e-014
rhumerus -29.1258 -4.17041 -86.4898
rradius 28.202
rwrist 1.03781
rhand -22.7013 -7.13495
rfingers 7.12502
rthumb 3.73151 -37.082
lclavicle 2.72335e-014 3.46382e-014
lhumerus -32.4682 -0.0958171 87.0765
lradius 31.0969
lwrist 26.6488
lhand -19.8114 8.7398
lfingers 7.12502
lthumb 6.52187 38.6194
rfemur -53.2232 6.04184 19.3651
rtibia 45.5943
rfoot -11.3088 -11.7866
rtoes 14.2062
lfemur -31.3063 6.86186 -19.2476
ltibia 68.2464
lfoot -5.03646 -12.1624
ltoes -4.22044
547
root -3.32506 16.687 -6.41176 707.942 -85.3866 -688.043
lowerback 27.2305 -1.34076 1.31185
upperback 5.23769 -1.80514 -0.489308
thorax -9.28475 -1.04986 -0.657193
lowerneck 0.597937 -0.723879 1.55677
upperneck -6.15037 -0.901085 1.52218
head -2.01811 -0.54529 0.232544
rclavicle -8.10048e-015 -2.4699e-014
rhumerus -29.1168 -4.10355 -86.5383
rradius 28.3124
rwrist 0.95508
rhand -22.7306 -7.14202
rfingers 7.12502
rthumb 3.70331 -37.0896
lclavicle -8.10048e-015 -2.4699e-014
lhumerus -32.3751 -0.242079 87.1419
lradius 31.2172
lwrist 26.5599
lhand -19.7006 8.75118
lfingers 7.12502
lthumb 6.62886 38.6274
rfemur -52.8353 6.1821 19.635
rtibia 45.6389
rfoot -11.723 -11.7622
rtoes 14.101
lfemur -32.8721 6.68426 -19.1024
ltibia 69.0743
lfoot -5.78315 -12.7166
ltoes -4.94701
548
root -3.47215 16.7063 -6.42328 710.751 -85.4351 -690.687
lowerback 27.189 -1.34681 1.41288
upperback 5.23393 -1.77735 -0.426614
thorax -9.26781 -1.0384 -0.65581
lowerneck 0.605371 -0.728943 1.56849
upperneck -6.19248 -0.905753 1.55462
head -2.03311 -0.549533 0.241093
rclavicle -4.4155e-014 -1.79652e-014
rhumerus -29.1364 -4.02894 -86.5824
rradius 28.4292
rwrist 0.879316
rhand -22.7905 -7.14772
rfingers 7.12502
rthumb 3.64539 -37.0963
lclavicle -4.4155e-014 -1.79652e-014
lhumerus -32.2879 -0.390457 87.2122
lradius 31.3357
lwrist 26.5333
lhand -19.574 8.77372
lfingers 7.12502
lthumb 6.75106 38.6461
rfemur -52.4527 6.35042 19.9384
rtibia 45.6796
rfoot -12.1502 -11.7812
rtoes 13.9813
lfemur -34.4796 6.49047 -18.9219
ltibia 69.8063
lfoot -6.52918 -13.0973
ltoes -5.6823
549
root -3.61782 16.7228 -6.43417 713.984 -85.4597 -693.767
lowerback 27.1492 -1.356 1.55133
upperback 5.23142 -1.74233 -0.354292
thorax -9.25064 -1.02446 -0.667683
lowerneck 0.610532 -0.737781 1.57219
upperneck -6.2295 -0.915426 1.59258
head -2.04597 -0.556141 0.252791
rclavicle 8.27441e-015 4.22417e-016
rhumerus -29.1834 -3.95231 -86.6217
rradius 28.5505
rwrist 0.803828
rhand -22.8595 -7.15445
rfingers 7.12502
rthumb 3.57877 -37.1042
lclavicle 8.27441e-015 4.22417e-016
lhumerus -32.2068 -0.543773 87.2854
lradius 31.4549
lwrist 26.5868
lhand -19.4449 8.81425
lfingers 7.12502
lthumb 6.87566 38.6826
rfemur -52.0697 6.54321 20.2536
rtibia 45.7325
rfoot -12.5925 -11.8408
rtoes 13.8352
lfemur -36.0965 6.28735 -18.7318
ltibia 70.4299
lfoot -7.28112 -13.2741
ltoes -6.41279
550
root -3.76226 16.7363 -6.444 717.306 -85.4596 -696.961
lowerback 27.1085 -1.36564 1.70685
upperback 5.24571 -1.70434 -0.27881
thorax -9.21422 -1.00988 -0.687081
lowerneck 0.609283 -0.748087 1.56799
upperneck -6.27033 -0.927312 1.63288
head -2.05889 -0.563805 0.2666
rclavicle 8.57259e-015 -1.26725e-014
rhumerus -29.232 -3.87261 -86.6588
rradius 28.6641
rwrist 0.725499
rhand -22.9292 -7.16079
rfingers 7.12502
rthumb 3.51144 -37.1116
lclavicle 8.57259e-015 -1.26725e-014
lhumerus -32.1131 -0.692041 87.3577
lradius 31.573
lwrist 26.7188
lhand -19.2929 8.8844
lfingers 7.12502
lthumb 7.02244 38.7479
rfemur -51.6777 6.75308 20.5651
rtibia 45.8104
rfoot -13.0453 -11.9398
rtoes 13.6123
lfemur -37.6931 6.08334 -18.5571
ltibia 70.9343
lfoot -8.03581 -13.2317
ltoes -7.13094
551
root -3.90567 16.7468 -6.45242 720.324 -85.4423 -699.889
lowerback 27.0832 -1.37189 1.85732
upperback 5.27749 -1.66576 -0.210451
thorax -9.1658 -0.995398 -0.711585
lowerneck 0.601223 -0.761073 1.55052
upperneck -6.30973 -0.942871 1.68163
head -2.07001 -0.573185 0.285341
rclavicle -5.61567e-015 6.83322e-015
rhumerus -29.2777 -3.79707 -86.6928
rradius 28.7603
rwrist 0.64213
rhand -22.9964 -7.16463
rfingers 7.12502
rthumb 3.44661 -37.1165
lclavicle -5.61567e-015 6.83322e-015
lhumerus -32.0139 -0.828967 87.4222
lradius 31.6906
lwrist 26.9166
lhand -19.1199 8.97167
lfingers 7.12502
lthumb 7.18946 38.8295
rfemur -51.2671 6.97785 20.8491
rtibia 45.9218
rfoot -13.5254 -12.0603
rtoes 13.4001
lfemur -39.2389 5.88015 -18.4275
ltibia 71.3082
lfoot -8.80451 -12.9593
ltoes -7.892
